<svg xmlns="http://www.w3.org/2000/svg" viewBox="0 0 166.9 166.9"><defs><style>.cls-1{fill:#00aeef;}.cls-2{fill:#fff;}</style></defs><g id="Layer_2" data-name="Layer 2"><g id="Layer_1-2" data-name="Layer 1"><circle id="outer" class="cls-1" cx="83.45" cy="83.45" r="83.45"/><circle class="cls-2" cx="83.45" cy="83.45" r="70.35"/><path class="cls-1" d="M82,111.67h42.82A50,50,0,0,0,119,48.14V83.87c0,4.53-7.08,4.53-7.08,0V42.23A50.09,50.09,0,0,0,48.09,48H80.63c4.52,0,4.52,7.09,0,7.09H42.23A50,50,0,0,0,48,118.86V84a2.92,2.92,0,0,1,.22-1.22,3.15,3.15,0,0,1,.42-1.18,3.26,3.26,0,0,1,3-1.7,3.34,3.34,0,0,1,3.4,3.36,2.85,2.85,0,0,1,.06.74v40.74a50,50,0,0,0,63.9-6H82C77.43,118.76,77.48,111.67,82,111.67Z"/><path class="cls-2" d="M115.88,69.23v0l-.8-1.76a35.36,35.36,0,1,0,3.84,16A36.26,36.26,0,0,0,115.88,69.23Z"/><circle class="cls-1" cx="83.45" cy="83.45" r="23.64"/><circle class="cls-2" cx="83.45" cy="83.45" r="4.79"/><rect class="cls-1" x="118.97" y="17.95" width="14.59" height="64.17"/><path class="cls-1" d="M48,84v-.21H33.34v64.17H48Z"/><rect class="cls-1" x="81.11" y="118.86" width="64.17" height="14.64"/><rect class="cls-1" x="17.04" y="33.5" width="63.11" height="14.43"/></g></g></svg>